<?xml version="1.0" standalone="no"?>
<!DOCTYPE svg PUBLIC "-//W3C//DTD SVG 20010904//EN"
 "http://www.w3.org/TR/2001/REC-SVG-20010904/DTD/svg10.dtd">
<svg version="1.0" xmlns="http://www.w3.org/2000/svg"
 width="60.000000pt" height="60.000000pt" viewBox="0 0 60.000000 60.000000"
 preserveAspectRatio="xMidYMid meet">

<g transform="translate(0.000000,60.000000) scale(0.100000,-0.100000)"
fill="#000000" stroke="none">
<path d="M454 493 l-48 -58 -142 3 c-138 3 -142 3 -170 -21 -29 -25 -29 -26
-32 -155 l-4 -130 30 -33 30 -34 141 0 c140 0 141 0 168 28 28 27 28 30 30
160 l2 132 52 64 53 64 -23 18 c-13 11 -27 19 -31 19 -5 0 -30 -26 -56 -57z
m-139 -168 l-47 -55 -36 30 -37 30 -24 -24 -24 -25 53 -48 c29 -26 58 -51 65
-55 8 -5 35 19 76 69 l64 77 3 -89 c4 -121 -1 -125 -147 -125 -151 0 -151 0
-151 144 0 81 4 117 13 124 15 13 230 21 235 10 2 -5 -17 -33 -43 -63z"/>
</g>
</svg>
